<!DOCTYPE svg PUBLIC "-//W3C//DTD SVG 1.1//EN" "http://www.w3.org/Graphics/SVG/1.1/DTD/svg11.dtd">
<!-- Uploaded to: SVG Repo, www.svgrepo.com, Transformed by: SVG Repo Mixer Tools -->
<svg fill="#ffffff" height="64px" width="64px" version="1.1" id="Layer_1" xmlns="http://www.w3.org/2000/svg" xmlns:xlink="http://www.w3.org/1999/xlink" viewBox="0 0 512 512" xml:space="preserve" stroke="#ffffff">
<g id="SVGRepo_bgCarrier" stroke-width="0"/>
<g id="SVGRepo_tracerCarrier" stroke-linecap="round" stroke-linejoin="round"/>
<g id="SVGRepo_iconCarrier"> <g> <g> <path d="M256.001,0C114.86,0,0.03,114.813,0.001,255.946C0.001,255.965,0,255.982,0,256h0.001c0,141.158,114.842,256,256,256 S512,397.158,512,256S397.16,0,256.001,0z M256.001,41.513c78.996,0,148.145,42.935,185.365,106.687 c-14.402-6.302-30.288-9.822-46.988-9.822c-63.029,0-114.641,49.289-117.499,112.211l-0.625,13.756l12.432,5.924 c26.378,12.569,43.422,39.557,43.422,68.757c0,41.966-34.142,76.108-76.108,76.108s-76.108-34.142-76.108-76.108 c0-29.201,17.044-56.189,43.422-68.757l12.432-5.924l-0.625-13.756c-2.859-62.922-54.47-112.211-117.498-112.211 c-16.698,0-32.584,3.52-46.985,9.822C107.855,84.447,177.004,41.513,256.001,41.513z M256.001,470.487 c-118.268,0-214.487-96.219-214.487-214.487c0-0.018,0-0.035,0-0.054c0.029-41.941,34.159-76.054,76.107-76.054 c36.604,0,67.257,25.684,74.492,60.373c-33.06,21.485-53.735,58.78-53.735,98.762c0,64.857,52.765,117.622,117.622,117.622 s117.622-52.765,117.622-117.622c0-39.982-20.674-77.277-53.735-98.762c7.234-34.689,37.888-60.373,74.492-60.373 c41.966,0,76.108,34.142,76.108,76.108C470.487,374.268,374.269,470.487,256.001,470.487z"/> </g> </g> <g> <g> <polygon points="200.649,318.27 256,387.459 311.351,318.27 "/> </g> </g> <g> <g> <path d="M124.542,207.568c-15.255,0-27.672,12.413-27.677,27.676c0,15.26,12.414,27.676,27.673,27.676h0.003 c15.26,0,27.677-12.415,27.677-27.676C152.218,219.983,139.802,207.568,124.542,207.568z"/> </g> </g> <g> <g> <path d="M387.459,207.568c-15.255,0-27.67,12.413-27.676,27.676c0,15.26,12.414,27.676,27.673,27.676h0.003 c15.26,0,27.676-12.415,27.676-27.676C415.135,219.983,402.72,207.568,387.459,207.568z"/> </g> </g> </g>
</svg>